# xmcd
#
# Track frame offsets:
#	150
#	16688
#	34425
#	50340
#	68569
#	77635
#	97006
#	111130
#	128964
#	153057
#	168808
#	188626
#	205246
#	225009
#	237537
#	249956
#	264953
#	279561
#
# Disc length: 4100 seconds
#
# Revision: 1
# Processed by: cddbd v1.5.2PL0 Copyright (c) Steve Scherf et al.
# Submitted via: audiograbber 1.83.01
#
DISCID=db100212
DTITLE=Various Artist - 36 Blues Classics - Disc 1
DYEAR=2008
DGENRE=Blues
TTITLE0=Peter green Splinter Group - Madison Blues
TTITLE1=jeremy Spencer - Dr J
TTITLE2=Taj Mahal - Sitting On The Top Of The World
TTITLE3=Omar Kent Dykes and Jimmie Vaughan - Jimmy Reed Highway
TTITLE4=Robert Palmer - Ain't That Just Like A Woman
TTITLE5=George Thorogood and The Destroyers - Move It On Over
TTITLE6=Elvin Bishop - Don't You Lie To Me
TTITLE7=Steady Rollin' Bob Margolin - Movin' South
TTITLE8=Stevie Ray Vaughn And Double Trouble - Texas Flood
TTITLE9=ZZ Top - Jesus Just Left chicargo
TTITLE10=Eric Clapton and B.B. King - Riding With The King
TTITLE11=Etta James - That's Alright
TTITLE12=Hubert Sumlin - I'm Ready
TTITLE13=Albert King - Born Under A Bad Sign
TTITLE14=Johnny Winter - Johnny Be Goode
TTITLE15=The Phil Butterfield Blues Band - Walkin' Blues
TTITLE16=Roy Buchanan With Delbert McClinton - The Chokin' Kind
TTITLE17=Gary Moore - Still Got the Blues
EXTD=
EXTT0=
EXTT1=
EXTT2=
EXTT3=
EXTT4=
EXTT5=
EXTT6=
EXTT7=
EXTT8=
EXTT9=
EXTT10=
EXTT11=
EXTT12=
EXTT13=
EXTT14=
EXTT15=
EXTT16=
EXTT17=
PLAYORDER=
